<?xml version="1.0" encoding="UTF-8"?><svg id="Layer_3" xmlns="http://www.w3.org/2000/svg" viewBox="0 0 156.11 82.98"><path d="m43.79,24.05c-2.93,0-5.32,2.17-5.32,4.85s2.39,4.85,5.32,4.85,5.32-2.17,5.32-4.85-2.39-4.85-5.32-4.85Z" fill="#f1f5f2"/><path d="m81.01,35.39c-.26-.04-.53-.08-.79-.1l-8.46-.84c-3.29-.33-6.22,2.07-6.55,5.36l-3.01,30.22c-.31,3.15,1.89,6,5.01,6.5.12.02.24.03.36.05,3.28.33,6.22-2.08,6.55-5.36l.77-7.75,2.86,10.33c.54,1.96,1.96,3.63,3.89,4.27,1.17.39,2.37.42,3.53.1,3.18-.88,5.05-4.18,4.17-7.36l-3.08-9.38-.48-1.36c3.61-2.17,6.01-5.95,6.43-10.14.7-7.03-4.21-13.4-11.18-14.51,0,0-.02-.03-.02-.03Zm1.66,13.36c.14,1.63-.68,3.11-2.14,3.86-.69.35-1.48.44-2.25.37l-3.66-.36h-.1c-.3-.05-.53-.17-.67-.38-.24-.34-.16-.77-.16-.78l.55-5.57c.1-1.05,1.13-.99,1.18-.99l3.78.38c.23.02.45.07.68.13,1.51.44,2.67,1.79,2.81,3.36h-.02v-.02Z" fill="#f1f5f2"/><path d="m121.48,39.82c-.05-.54-.17-1.06-.36-1.55-.12-.33-.27-.64-.45-.94-.88-1.48-2.39-2.55-4.2-2.84-.32-.05-.66-.08-.99-.07-3.3.02-5.97,2.72-5.95,6.02l.14,22.34s0,.06-.03.14c-.08.35-.39,1.19-1.51,1.2-.12,0-.24,0-.36-.03-1.14-.18-1.19-1.26-1.2-1.3l-.14-22.34c0-.73-.14-1.44-.39-2.09-.12-.33-.27-.64-.45-.94-.88-1.48-2.38-2.55-4.2-2.84-.32-.05-.66-.08-.99-.07-3.3.02-5.97,2.72-5.95,6.02l.14,22.39.03.61c.04,6.62,4.8,12.17,11.33,13.21.36.06.73.1,1.11.13.37.03.74.04,1.12.04.22,0,.45,0,.67-.02.22-.01.44-.03.67-.05.22-.02.44-.05.66-.08.44-.07.87-.16,1.29-.26,2.33-.6,4.47-1.82,6.21-3.58,2.53-2.56,3.95-5.97,3.93-9.56v-2.07l-.12-20.91c0-.18-.01-.37-.03-.55h.02,0Z" fill="#f1f5f2"/><path d="m140.27,34.6c-.34-.05-.69-.1-1.04-.12-.35-.03-.7-.04-1.05-.04l-8.51-.02c-.21,0-.41,0-.61.03-.2.02-.4.05-.59.09-.39.08-.76.2-1.12.35-.36.15-.7.34-1.02.55-.64.43-1.19.98-1.62,1.61-.22.32-.4.66-.55,1.02-.3.71-.47,1.5-.48,2.33l-.06,30.36c0,2.96,2.11,5.45,5.03,5.92.31.05.62.07.94.08,1.97,0,3.8-.94,4.96-2.62.71-1.03,1.03-2.29,1.03-3.54l.02-8.4c0-.13,0-.24.04-.33.05-.19.13-.33.23-.44.25-.25.58-.27.6-.27h1.66c3.58-.03,6.94-1.43,9.45-3.92.32-.31.61-.64.89-.98s.54-.69.79-1.05c.12-.18.24-.36.35-.55.34-.56.63-1.14.88-1.73.17-.4.31-.8.44-1.22.13-.41.23-.83.32-1.26.17-.85.26-1.73.26-2.62,0-6.62-4.71-12.18-11.24-13.22h0Zm-2.26,17.61h-3.69c-.09,0-.17,0-.24-.03h0c-.16-.03-.29-.08-.4-.15-.1-.07-.18-.15-.24-.24-.08-.12-.12-.24-.14-.36-.02-.11-.03-.21-.03-.26v-5.65c0-1.06,1.04-1.1,1.09-1.1h3.8c.2,0,.41.02.61.06,2.2.35,3.7,2.47,3.16,4.79-.41,1.76-2.1,2.93-3.91,2.93h0Z" fill="#f1f5f2"/><path d="m27.19,69.83c-.76,2.93,1,5.92,3.92,6.69.17.05.35.08.52.11,2.8.45,5.45-1.29,6.16-4.03l.41-1.3h10.53l.35,1.32c.54,2.12,2.29,3.71,4.45,4.06.74.12,1.49.08,2.22-.1,1.42-.36,2.61-1.26,3.36-2.52.75-1.26.96-2.73.59-4.15l-7.58-28.56c-.15-.57-.51-1.47-.84-2-1.4-2.21-3.43-2.75-3.96-2.86-1.84-.31-5.63-.38-7.64-.02-.7.1-3.69.71-4.61,4.09l-4.35,16.14c-.98,3.64.09-.32-.57,2.12l-2.97,11.01h0Zm13.1-9.96l1.83-6.77c.16-.58.64-.98,1.22-1.03h.29c.58.06,1.06.46,1.21,1.05l1.71,6.65c.3.89.07,1.43-.17,1.74-.38.48-.95.56-1.27.56h-3.19c-.11,0-.27,0-.46-.02-.44-.07-.81-.3-1.03-.64-.26-.4-.31-.92-.15-1.52v-.02h0Z" fill="#f1f5f2"/><path d="m28.76,55.06c-.28-2.6-2.27-4.76-4.84-5.24-.57-.11-1.16-.13-1.75-.07l-3.89.42s-.11,0-.24-.02c-.25-.05-.55-.2-.6-.66l-.17-1.5c-.1-.9.68-1.02.71-1.02l8.75-.95c2.51-.27,4.72-1.99,5.37-4.43.93-3.5-1.41-6.81-4.67-7.43-.57-.11-1.16-.13-1.75-.07l-15.61,1.69c-.09,0-.17.02-.26.04-3.38.83-5.5,3.51-5.17,6.56l3.24,29.97c.17,1.61.89,3.16,2.15,4.19,1.45,1.18,3.27,1.61,5.02,1.25,3.08-.62,5.05-3.66,4.72-6.78l-.95-8.81.05-.07,4.59-.49c2.19-.24,3.98-1.63,4.82-3.51h0s.19-.43.32-.93.16-.86.16-.86h0c.04-.41.05-.84,0-1.27h0Z" fill="#f1f5f2"/><path d="m151.78,36.1c-2.77-3.23-6.6-5.37-10.78-6.04-.92-.15-1.87-.22-2.81-.23l-8.51-.02h-.02c-2.66,0-5.16.99-7.07,2.71-1.5-1.34-3.37-2.25-5.39-2.57-.57-.09-1.15-.12-1.74-.13-2.88.02-5.56,1.21-7.5,3.19-1.55-1.55-3.57-2.6-5.81-2.96-.57-.09-1.16-.13-1.74-.13-4,.02-7.47,2.28-9.25,5.57-2.56-2.39-5.79-4.02-9.3-4.61l-.12-.02c-.35-.06-.71-.1-1.06-.14l-8.46-.84c-5.81-.57-11,3.68-11.58,9.48l-1.16,11.67-2.88-10.86c-.24-.92-.77-2.29-1.4-3.28-.76-1.19-1.69-2.21-2.82-3.04.93-1.46,1.45-3.16,1.45-4.94,0-5.26-4.49-9.54-10.01-9.54s-10.01,4.28-10.01,9.54c0,1.6.42,3.14,1.19,4.51-.09.05-.17.11-.25.17-1.55-2.02-3.8-3.43-6.43-3.92-1.02-.19-2.06-.23-3.1-.12-15.66,1.69-15.77,1.7-15.84,1.72-.17.03-.33.06-.33.06l-.1.02c-2.57.59-4.87,1.96-6.47,3.85C.6,37.34-.24,40.09.06,42.9l3.27,30.19c.34,3.17,1.98,5.89,4.61,7.65,2.08,1.39,4.58,2,7.05,1.74,3.13-.34,5.94-2.05,7.7-4.69.37-.56.68-1.15.94-1.78,1.29,2.38,3.52,4.24,6.33,4.97.32.08.64.15.95.2,4.33.69,8.54-1.51,10.51-5.27h4.03c1.46,2.8,4.18,4.8,7.36,5.31,1.37.22,2.74.15,4.09-.19,1.66-.42,3.14-1.24,4.36-2.37.06.05.64.51.64.51,1.33.98,2.89,1.63,4.57,1.9.21.03.42.06.63.08,2.82.28,5.57-.55,7.75-2.34.06-.05.12-.1.17-.15,1.62,2.2,4.07,3.74,6.86,4.19.56.09,1.11.13,1.67.13.95,0,1.89-.13,2.82-.39,3.92-1.09,6.72-4.26,7.52-7.99.18.23.37.45.56.67,2.78,3.21,6.62,5.35,10.8,6.02.98.16,1.99.23,2.98.23,4.68-.03,9.08-1.82,12.44-5.07.1.16.21.31.31.47.18.26.38.51.58.74.25.3.53.58.81.84.85.79,1.82,1.44,2.88,1.92.34.15.71.29,1.12.42.37.12.76.22,1.18.3h.05c.1.03.2.05.31.07.27.04.55.08.82.1.28.02.58.04.85.03,3.49,0,6.73-1.69,8.79-4.67,1.23-1.79,1.79-3.97,1.8-6.15v-4.9c4.03-.48,7.74-2.26,10.64-5.13,3.41-3.37,5.29-7.87,5.3-12.66,0-4.31-1.53-8.47-4.33-11.74h0Zm-2.8,22.57c-2.89,2.86-6.74,4.46-10.84,4.5h-.55l-.02,7.63c0,4.4-3.59,7.97-7.99,7.96-.21,0-.42,0-.63-.03-.21-.02-.42-.04-.62-.07-.09-.01-.17-.04-.26-.05-.3-.06-.6-.14-.9-.23-.29-.09-.57-.19-.85-.32-.8-.36-1.53-.85-2.17-1.44-.21-.2-.42-.41-.61-.64-.16-.18-.3-.37-.44-.56-.41-.58-.75-1.21-.99-1.87s-.4-1.36-.46-2.07c-.01-.16-.02-.32-.03-.48-.67,1.2-1.51,2.32-2.5,3.33-2.9,2.94-6.77,4.57-10.9,4.6-.85,0-1.71-.06-2.55-.19-3.57-.57-6.85-2.4-9.24-5.15-2.4-2.77-3.74-6.32-3.77-9.99l-.02-.58v-.08l-.05-7.42c-1.05,2.07-2.56,3.9-4.44,5.32l3.07,9.34.02.05v.05c.98,3.47-.44,7.24-3.58,9-2.04,1.14-4.24,1.4-6.39.77-2.7-.8-4.71-3.06-5.46-5.78l-.21-.75c-.49,1.27-1.3,2.39-2.38,3.28-1.65,1.35-3.72,1.98-5.84,1.77-.16-.02-.32-.04-.47-.06-2.51-.4-4.58-1.95-5.73-4.04-.1.21-.21.42-.33.62-1.02,1.72-2.64,2.94-4.58,3.43-1,.26-2.02.3-3.03.14-2.88-.46-5.22-2.55-6.02-5.34h-7.53c-1.05,3.62-4.6,5.89-8.35,5.29-.24-.04-.48-.09-.71-.15-3.99-1.04-6.39-5.13-5.35-9.12h0v-.02l1.86-6.89c-1.09.69-2.34,1.09-3.63,1.23l-2.46.27-.02.03.75,6.95c.16,1.53-.02,3.09-.7,4.47-1.26,2.57-3.63,4.21-6.36,4.51-2.11.23-4.24-.38-5.98-1.81-1.64-1.34-2.6-3.34-2.82-5.44l-3.25-30.01c-.23-2.09.4-4.14,1.77-5.76,1.24-1.47,3.04-2.53,5.06-2.99,0,0,.11-.02.24-.04.12-.02,15.73-1.7,15.73-1.7.78-.08,1.57-.05,2.33.09,3.07.58,5.45,2.83,6.23,5.78.61-1.02,1.45-1.86,2.49-2.48.65-.36,1.79-.66,3.15-.86-1.98-1.25-3.28-3.36-3.28-5.75,0-3.82,3.32-6.93,7.41-6.93s7.41,3.11,7.41,6.93c0,2.45-1.37,4.6-3.42,5.83,1.07.21,2,.53,2.67.96.86.56,1.76,1.39,2.52,2.59.46.72.89,1.83,1.08,2.55l6.57,24.77,2.59-25.99c.44-4.38,4.34-7.58,8.73-7.15l8.46.84c.3.03.61.07.91.12h0c4.95.79,9,3.9,11.17,8.06v-.94c-.03-4.4,3.52-8,7.92-8.03.44,0,.88.03,1.31.1,2.95.47,5.29,2.5,6.25,5.18,1.08-3.11,4.02-5.35,7.49-5.37.44,0,.88.03,1.31.1h0c2.57.41,4.67,2,5.81,4.17,1.34-2.54,4.01-4.28,7.08-4.27l8.51.02c.81,0,1.61.07,2.4.19,3.57.57,6.85,2.4,9.22,5.16,2.4,2.79,3.71,6.35,3.7,10.03,0,4.09-1.62,7.93-4.52,10.82h.01Z" fill="#f1f5f2"/><path d="m48.48,2.65c-.73-2.45-3.82-3.44-5.89-1.93-1.46,1.06-1.47,2.99-1.45,4.36.04,2.72.09,3.2.31,6.52.07,1.16.07,2.58.64,3.84.99,2.18,3.89,2.75,5.25-.18.23-.49.35-1.02.41-1.56.17-1.39.56-4.58.75-6.31.17-1.57.18-1.35.21-2.19.03-.97,0-1.8-.23-2.54h0Z" fill="#f1f5f2"/><path d="m38.26,14.77c-.92-1.95-2.32-4.51-3.09-6.57-1.24-3.33-2.77-3.82-4.91-3.73-1.29.06-2.35.73-2.9,1.85-1.19,2.42.28,4.72.74,5.28,2.22,2.69,4.24,6.04,6.22,7.37,1.02.69,2.12.57,3.39-.17h0c1.09-.85,1.39-2.6.54-4.03h0Z" fill="#f1f5f2"/><path d="m29.78,19.85l-3.4-1.84h0c-.87-.38-1.96-.85-3.19-.84-4.04-.03-5.23,5.71-1.63,7.11,2.01.78,3.57,1.12,5.22,1.34,1.61.17,3.72,1.01,5-.11,1.63-1.42,1.72-3.89-1.99-5.64v-.02h-.01Z" fill="#f1f5f2"/><path d="m51.03,15.62c1.13-1.84,2.81-4.22,3.81-6.18,1.61-3.17,3.19-3.49,5.3-3.15,1.28.21,2.25.99,2.67,2.16.91,2.53-.81,4.66-1.33,5.17-2.51,2.42-4.9,5.52-7.01,6.62-1.09.57-2.17.32-3.35-.56h0c-.99-.97-1.09-2.74-.08-4.06h0Z" fill="#f1f5f2"/><path d="m58.69,21.68l3.52-1.61h0c.9-.32,2.02-.71,3.24-.62,4.03.25,4.82,6.05,1.14,7.2-2.06.65-3.64.87-5.3.98-1.62.06-3.78.75-4.98-.46-1.53-1.53-1.45-3.99,2.38-5.49Z" fill="#f1f5f2"/></svg>