<svg xmlns="http://www.w3.org/2000/svg" width="96.737" height="52.609"><defs><clipPath id="a"><path data-name="Path 18" d="M0-2.329h96.737v-52.609H0Z" transform="translate(0 54.938)" fill="none"/></clipPath><clipPath id="b"><path data-name="Rectangle 1" fill="none" d="M0 0h62756.789v62756.789H0z"/></clipPath></defs><g data-name="Group 22"><g data-name="Group 21" clip-path="url(#a)"><g data-name="Group 20" style="isolation:isolate"><g data-name="Group 19"><g data-name="Group 18" clip-path="url(#b)" transform="translate(-31378.875 -31325.309)"><g data-name="Group 1"><path data-name="Path 1" d="M31387.805 31362.759c-5.164 0-7-3.227-7-5.993 0-2.359 1.134-3.907 3.517-6.292l10.924-11.034h-6.731c-5.053 0-6.853-2.849-6.853-5.516s1.8-5.518 6.853-5.518h20.61c4.018 0 6.616 2.353 6.616 5.991 0 1.929-.718 3.374-2.654 5.335l-11.872 11.993h8.437c5.971 0 6.616 3.857 6.616 5.517s-.653 5.515-6.62 5.515h-21.843Z" fill="#db1f28"/></g><g data-name="Group 2"><path data-name="Path 2" d="M31409.125 31330.035c3.467 0 4.986 1.944 4.986 4.362 0 1.426-.521 2.506-2.184 4.19l-14.626 14.771h12.35c3.276 0 4.985 1.337 4.985 3.885s-1.712 3.885-4.985 3.885h-21.846c-3.7 0-5.365-1.945-5.365-4.362 0-1.638.666-2.763 3.038-5.138l13.673-13.817h-10.632c-3.561 0-5.225-1.555-5.225-3.888s1.663-3.887 5.225-3.887h20.606m0-3.262h-20.608c-6.264 0-8.486 3.851-8.486 7.149s2.223 7.148 8.486 7.148h2.822l-8.179 8.263c-2.636 2.64-3.982 4.521-3.982 7.434 0 3.795 2.666 7.624 8.627 7.624h21.846c6.079 0 8.247-3.693 8.247-7.148s-2.166-7.146-8.247-7.146h-4.528l9.128-9.219c1.623-1.645 3.123-3.566 3.123-6.48-.002-3.795-2.552-7.62-8.249-7.62" fill="#fff"/></g><g data-name="Group 3"><path data-name="Path 3" d="M31411.23 31345.327a18.107 18.107 0 0 0 18.086 18.086 18.105 18.105 0 0 0 18.086-18.086 18.106 18.106 0 0 0-18.086-18.087 18.107 18.107 0 0 0-18.086 18.087" fill="#db1f28"/></g><g data-name="Group 4"><path data-name="Path 4" d="M31429.317 31325.609a19.739 19.739 0 0 0-19.717 19.715 19.738 19.738 0 0 0 19.717 19.718 19.738 19.738 0 0 0 19.715-19.718 19.737 19.737 0 0 0-19.715-19.715m-16.455 19.715a16.454 16.454 0 0 1 16.455-16.453 16.455 16.455 0 0 1 16.456 16.453 16.454 16.454 0 0 1-16.456 16.459 16.455 16.455 0 0 1-16.455-16.459" fill="#fff"/></g><g data-name="Group 5"><path data-name="Path 5" d="M31437.512 31345.327a18.106 18.106 0 0 0 18.084 18.086 18.105 18.105 0 0 0 18.086-18.086 18.106 18.106 0 0 0-18.086-18.087 18.106 18.106 0 0 0-18.084 18.087" fill="#db1f28"/></g><g data-name="Group 6"><path data-name="Path 6" d="M31455.598 31325.609a19.737 19.737 0 0 0-19.715 19.715 19.738 19.738 0 0 0 19.715 19.718 19.736 19.736 0 0 0 19.714-19.718 19.736 19.736 0 0 0-19.714-19.715m-16.455 19.715a16.454 16.454 0 0 1 16.455-16.453 16.452 16.452 0 0 1 16.452 16.453 16.452 16.452 0 0 1-16.452 16.459 16.455 16.455 0 0 1-16.455-16.459" fill="#fff"/></g><g data-name="Group 7"><path data-name="Path 7" d="M31409.692 31353.334c3.271 0 4.981 1.332 4.981 3.886s-1.71 3.886-4.981 3.886h-21.848c-3.7 0-5.365-1.943-5.365-4.362 0-1.641.666-2.764 3.038-5.14l13.675-13.819h-10.634c-3.561 0-5.225-1.554-5.225-3.885s1.663-3.888 5.225-3.888h20.609c3.467 0 4.987 1.943 4.987 4.362 0 1.426-.523 2.5-2.184 4.19l-14.626 14.77Z" fill="#db1f28"/></g><g data-name="Group 8"><path data-name="Path 8" d="M31446.08 31345.604a16.452 16.452 0 0 1-16.454 16.455 16.456 16.456 0 0 1-16.456-16.455 16.456 16.456 0 0 1 16.456-16.456 16.453 16.453 0 0 1 16.454 16.456" fill="#db1f28"/></g><g data-name="Group 9"><path data-name="Path 9" d="M31472.297 31345.651a16.452 16.452 0 0 1-16.454 16.455 16.456 16.456 0 0 1-16.456-16.455 16.456 16.456 0 0 1 16.456-16.456 16.453 16.453 0 0 1 16.454 16.456" fill="#db1f28"/></g><g data-name="Group 10"><path data-name="Path 10" d="M31426.039 31348.226a.567.567 0 0 1-.58.574c-.493 0-.627-.3-.733-.972a2.651 2.651 0 0 1-2.24 1.014c-2.654 0-3.668-1.828-3.668-3.94a3.634 3.634 0 0 1 3.919-3.94c1.9 0 2.916 1.141 2.916 1.808a.715.715 0 0 1-.8.752c-.847 0-.533-1.181-2.2-1.181-1.18 0-2.112.773-2.112 2.675 0 1.482.733 2.508 2.132 2.508a1.73 1.73 0 0 0 1.78-1.535h-1.118c-.367 0-.773-.135-.773-.658a.6.6 0 0 1 .669-.658h2.112c.5 0 .7.252.7.722v2.831Z" fill="#fff"/></g><g data-name="Group 11"><path data-name="Path 11" d="M31427.576 31341.863a.807.807 0 0 1 .857-.857.806.806 0 0 1 .856.857v6.084a.806.806 0 0 1-.856.854.806.806 0 0 1-.857-.854Z" fill="#fff"/></g><g data-name="Group 12"><path data-name="Path 12" d="M31434.483 31348.205c-.177.49-.512.6-1.044.6s-.865-.109-1.045-.6l-2.11-5.934a1.469 1.469 0 0 1-.1-.5c0-.576.439-.762.867-.762.461 0 .71.239.867.75l1.547 5.122h.02l1.606-5.125c.157-.51.409-.75.8-.75.429 0 .869.187.869.762a1.492 1.492 0 0 1-.1.5Z" fill="#fff"/></g><g data-name="Group 13"><path data-name="Path 13" d="M31441.589 31344.309c1.566.356 1.965 1.285 1.965 2.164 0 1.359-1.024 2.373-3.093 2.373-2.172 0-3.148-1.086-3.148-1.9a.691.691 0 0 1 .722-.712c.93 0 .69 1.359 2.426 1.359.889 0 1.377-.492 1.377-.993 0-.3-.145-.636-.73-.782l-1.93-.493c-1.559-.398-1.842-1.255-1.842-2.06 0-1.673 1.546-2.3 3-2.3 1.337 0 2.913.752 2.913 1.755a.712.712 0 0 1-.781.68c-.795 0-.648-1.117-2.247-1.117-.795 0-1.232.367-1.232.887s.627.69 1.172.815Z" fill="#fff"/></g><g data-name="Group 14"><path data-name="Path 14" d="M31444.807 31341.863a.808.808 0 0 1 .857-.857.806.806 0 0 1 .856.857v2.488l2.697-2.969a.907.907 0 0 1 .68-.376.748.748 0 0 1 .817.69.807.807 0 0 1-.283.585l-1.757 1.849 2.08 3.165a1.443 1.443 0 0 1 .324.68.788.788 0 0 1-.877.826.765.765 0 0 1-.762-.448l-1.978-3.052-.939.941v1.705a.806.806 0 0 1-.856.854.807.807 0 0 1-.859-.854v-6.084Z" fill="#fff"/></g><g data-name="Group 15"><path data-name="Path 15" d="M31451.963 31341.863a.808.808 0 0 1 .857-.857.806.806 0 0 1 .856.857v4.117c0 1.024.576 1.484 1.559 1.484s1.556-.463 1.556-1.484v-4.117a.807.807 0 0 1 .857-.857.806.806 0 0 1 .856.857v3.982c0 2.067-1.275 3-3.269 3s-3.272-.933-3.272-3Z" fill="#fff"/></g><g data-name="Group 16"><path data-name="Path 16" d="M31460.094 31342.147c0-.764.4-1 1-1h2.095c1.868 0 3.581.812 3.581 3.761 0 2.383-1.325 3.762-3.616 3.762h-2.06a.874.874 0 0 1-1-1Zm1.713 5.144h1.442c1.369 0 1.808-1.223 1.808-2.383 0-1.489-.563-2.387-1.818-2.387h-1.432Z" fill="#fff"/></g><g data-name="Group 17"><path data-name="Path 17" d="M31469.605 31373.852h-2.552l1.291-3.841h.027Zm-5.371 1.914a2.978 2.978 0 0 0-.214.839.93.93 0 0 0 1.012.958.881.881 0 0 0 .971-.6l.573-1.592h3.51l.559 1.594a.933.933 0 0 0 .983.6 1 1 0 0 0 1.021-.96 2.993 2.993 0 0 0-.213-.839l-2.632-7.326a1.078 1.078 0 0 0-1.17-.8h-.519a.984.984 0 0 0-1.064.666Zm-6.181.706a1.024 1.024 0 0 0 1.09 1.09 1.024 1.024 0 0 0 1.09-1.09v-7.738a1.025 1.025 0 0 0-1.09-1.091 1.025 1.025 0 0 0-1.09 1.091Zm-9.838-6.98h1.808c1.078 0 1.755.4 1.755 1.356a1.383 1.383 0 0 1-1.528 1.355h-2.035Zm-2.181 6.98a1.024 1.024 0 0 0 1.09 1.09 1.024 1.024 0 0 0 1.09-1.09v-2.594h2.42a2.989 2.989 0 0 0 3.324-3.03c0-2.128-1.477-3.031-3.31-3.031h-3.338c-.77 0-1.275.305-1.275 1.275Zm-11.758-3.99c0-1.834.879-3.137 2.659-3.137s2.658 1.3 2.658 3.137-.678 3.377-2.658 3.377c-2.043 0-2.659-1.543-2.659-3.377m-2.18 0c0 2.9 1.408 5.132 4.841 5.132 3.271 0 4.838-2.433 4.838-5.132a4.541 4.541 0 0 0-4.838-4.892 4.542 4.542 0 0 0-4.841 4.892m-8.539 3.989a1.025 1.025 0 0 0 1.091 1.09 1.024 1.024 0 0 0 1.09-1.09v-6.82h2.061c.625 0 1.131-.32 1.131-.916s-.506-.917-1.131-.917h-6.3c-.625 0-1.13.32-1.13.917s.5.916 1.13.916h2.061Zm-13.759-3.989c0-1.834.877-3.137 2.658-3.137s2.658 1.3 2.658 3.137-.677 3.377-2.658 3.377c-2.047 0-2.658-1.543-2.658-3.377m-2.18 0c0 2.9 1.41 5.132 4.838 5.132 3.272 0 4.839-2.433 4.839-5.132a4.542 4.542 0 0 0-4.839-4.892 4.541 4.541 0 0 0-4.838 4.892m-11.328 0c0-1.834.877-3.137 2.659-3.137s2.658 1.3 2.658 3.137-.678 3.377-2.658 3.377c-2.047 0-2.659-1.543-2.659-3.377m-2.18 0c0 2.9 1.41 5.132 4.841 5.132 3.269 0 4.84-2.433 4.84-5.132a4.541 4.541 0 0 0-4.84-4.892 4.542 4.542 0 0 0-4.841 4.892m-11.593 2.993a1.278 1.278 0 0 0-.359.838c0 .811.464 1.076 1.262 1.076h5.916c.626 0 1.131-.32 1.131-.917s-.5-.916-1.131-.916h-4.255l5.011-5.956a1.223 1.223 0 0 0 .305-.787.893.893 0 0 0-1.009-1h-5.741c-.625 0-1.131.32-1.131.916s.506.917 1.131.917h3.8Z"/></g></g></g></g></g></g></svg>